<?xml version="1.0" encoding="utf-8"?>
<!-- Generator: Adobe Illustrator 24.2.1, SVG Export Plug-In . SVG Version: 6.00 Build 0)  -->
<svg version="1.0" id="Ebene_1" xmlns="http://www.w3.org/2000/svg" xmlns:xlink="http://www.w3.org/1999/xlink" x="0px" y="0px"
	 viewBox="0 0 310 89" style="enable-background:new 0 0 310 89;" xml:space="preserve">
<style type="text/css">
	.st0{fill-rule:evenodd;clip-rule:evenodd;fill:#e61f4a;}
	.st1{fill-rule:evenodd;clip-rule:evenodd;fill:#3C3C3B;}
	.st2{fill:#3C3C3B;}
</style>
<g id="Logo" transform="translate(-160 -146)">
	<g id="GWLB_logo" transform="translate(160 146)">
		<path id="Pfad_1" class="st0" d="M75.4,50.2c2.4,0.7,1.5,4.3-0.5,4.7v-4.4C75,50.3,75.2,50.3,75.4,50.2z M74.9,88.1v-3.5
			c13,1.9,27.5,1.2,45.4-6.3c2.7-1.2,11.1-6.2,12.2-8.2c0.1-0.2,0.5,0.2,0.7,0.4c-1.2,2.3-5.8,5.1-11.3,8.3
			C106,88,89.5,89.6,74.9,88.1L74.9,88.1z M74.9,54.9c-0.1,0-0.2,0-0.3,0c-0.3-0.8-1.3-1-1.6-2.8c0.6-0.7,1.2-1.2,2-1.6L74.9,54.9
			L74.9,54.9z M74.9,84.7v3.5c-4.3-0.4-8.5-1.1-12.7-2.1c-6.2-1.3-12.3-3.5-17.8-6.6V74c5.7,3.7,12,6.5,18.6,8.2
			C66.9,83.2,70.8,84,74.9,84.7L74.9,84.7z M44.4,29.4v-2.1c4-3.1,8.9-7.7,10.2-11.5c1.5-5.2-0.3-8.4-2.1-10.4
			c-2.6-3-6.8,5.1-8.2,7.9V9.4c1-2.1,2.1-4,3.1-6.1c1-1.4,2.4-2.5,4.1-2.9c4,0.5,6.8,10.5,4.4,16.4C55.7,18.3,50.5,25,44.4,29.4
			L44.4,29.4z M44.4,9.4v3.9c-0.1,0.1-0.1,0.3-0.2,0.4c-3.7,7.6-9.5,18.2-10.5,19.9c2.2-1,4.2-2.1,5.8-3c1.8-0.9,3.5-2,5-3.3v2.1
			c-1.4,1-2.8,1.9-4.4,2.6c-2.3,1.3-4.6,2.4-7,3.3l-0.5,1c-3.1,7.1-6.8,13.1-10.7,19.8c0.8-0.2,7.1,5.6,11.2,8.9
			c2.3,1.8,5.8,5.4,11.3,9v5.4c-7.6-4.2-12.7-9.2-17.3-13c-7.5-6.2-12.9-14.3-18.8-10.2c-2.1,1.4-2.6,7.1,0.9,8.5
			c4,0.9,5.7-3.4,6.1-3.5c1.4-1.6,1-0.7,1.1-0.4c-0.1,0.2-0.7,1.7-0.9,1.8c-1.4,3.7-4,4.7-7,4.2C4.8,64.6,3.7,59.7,6,56
			c4.2-5.6,9.1-5.1,14.8-0.7c1.7-1,9.3-15.9,10.8-19.3l0.1-0.2c-10.5,4-27.2,8.9-31.1,5.6c-0.7-0.2,0.2-1,0.9-0.5
			c4.2,3.1,19.9-1.7,30.9-6.7C36.3,25.6,40.3,17.6,44.4,9.4L44.4,9.4z"/>
		<g id="Gruppe_1" transform="translate(90.781 38.926)">
			<path id="Pfad_2" class="st1" d="M183.6,26.2v-0.5c0.4,0,0.8-0.1,1.2-0.2c0.8-0.3,1.4-0.9,1.7-1.7c0.2-0.4,0.2-0.8,0.2-1.2
				c0-0.4-0.1-0.8-0.2-1.2c-0.3-0.8-0.9-1.4-1.7-1.7c-0.4-0.2-0.8-0.2-1.2-0.2v-0.5c0.5,0,1,0.1,1.4,0.3c0.4,0.2,0.9,0.4,1.2,0.8
				c0.3,0.3,0.6,0.7,0.8,1.2c0.2,0.4,0.3,0.9,0.3,1.4c0,0.4,0,0.7-0.2,1.1c-0.1,0.3-0.3,0.7-0.5,1c-0.3,0.5-0.8,0.9-1.4,1.2
				C184.7,26,184.2,26.2,183.6,26.2L183.6,26.2z M191.2,26v-6.6h-2.6v-0.5h5.9v0.5h-2.6V26L191.2,26z M196.1,26v-7.2h0.5v3.3h4.7
				v-3.3h0.5V26h-0.5v-3.3h-4.7V26L196.1,26z M204.5,26v-7.2h3.8v0.5H205v2.8h3.2v0.5H205v2.9h3.4V26L204.5,26z M210.4,26v-7.2h0.6
				v3.5l3.4-3.5h0.7l-3.4,3.5l3.7,3.7h-0.8l-3.7-3.6V26L210.4,26z M183.6,18.8v0.5l0,0c-0.4,0-0.8,0.1-1.2,0.2
				c-0.4,0.2-0.8,0.4-1,0.7c-0.3,0.3-0.5,0.7-0.7,1c-0.2,0.4-0.2,0.8-0.2,1.2c0,0.4,0.1,0.9,0.2,1.2c0.2,0.4,0.4,0.7,0.7,1
				c0.3,0.3,0.6,0.5,1,0.7c0.4,0.2,0.8,0.2,1.2,0.2l0,0v0.5l0,0c-0.5,0-1-0.1-1.4-0.3c-0.4-0.2-0.9-0.4-1.2-0.8
				c-0.3-0.3-0.6-0.7-0.8-1.2c-0.2-0.5-0.3-0.9-0.3-1.4c0-0.5,0.1-0.9,0.3-1.4c0.2-0.5,0.5-0.9,0.8-1.2c0.3-0.4,0.8-0.6,1.2-0.8
				C182.6,18.9,183.1,18.8,183.6,18.8L183.6,18.8z M167.2,26v-0.5c0.4,0,0.8-0.1,1.2-0.4c0.3-0.2,0.5-0.6,0.5-1
				c0-0.4-0.2-0.8-0.5-1.1c-0.3-0.2-0.7-0.4-1.1-0.4v-0.5c0.3,0,0.5-0.2,0.7-0.4c0.3-0.3,0.4-0.7,0.4-1c0-0.4-0.2-0.8-0.5-1
				c-0.2-0.2-0.4-0.3-0.6-0.3v-0.5c0.4,0.1,0.7,0.2,1,0.5c0.4,0.3,0.6,0.8,0.6,1.4c0,0.3-0.1,0.6-0.2,0.9c-0.2,0.3-0.4,0.5-0.7,0.7
				c0.5,0.1,0.9,0.3,1.2,0.7c0.3,0.3,0.4,0.8,0.4,1.2c0,0.3-0.1,0.6-0.2,0.9c-0.2,0.3-0.4,0.5-0.6,0.7c-0.2,0.1-0.4,0.2-0.7,0.3
				C167.7,26,167.4,26,167.2,26L167.2,26z M171.4,26v-7.2h0.6v6.6h3.3V26L171.4,26L171.4,26z M177.1,26v-7.2h0.6V26L177.1,26z
				 M167.2,18.9v0.5c-0.2-0.1-0.4-0.1-0.6-0.1h-1v2.8h1.2c0.2,0,0.4,0,0.5,0v0.5h-1.6v2.9h1.2c0.2,0,0.4,0,0.5,0V26
				c-0.2,0-0.4,0-0.5,0h-1.7v-7.1h1.7C166.8,18.9,167,18.9,167.2,18.9L167.2,18.9z M157.6,26v-0.5c0.4,0,0.8-0.1,1.2-0.4
				c0.3-0.2,0.5-0.6,0.5-1c0-0.4-0.2-0.8-0.5-1.1c-0.3-0.2-0.7-0.4-1.1-0.4v-0.5c0.3,0,0.5-0.2,0.7-0.4c0.3-0.3,0.4-0.7,0.4-1
				c0-0.4-0.1-0.8-0.4-1c-0.2-0.2-0.4-0.3-0.7-0.3v-0.5c0.4,0.1,0.8,0.2,1,0.5c0.4,0.3,0.6,0.8,0.6,1.4c0,0.3-0.1,0.6-0.2,0.9
				c-0.2,0.3-0.4,0.5-0.7,0.7c0.5,0.1,0.9,0.3,1.2,0.7c0.3,0.3,0.4,0.8,0.4,1.2c0,0.3-0.1,0.6-0.2,0.9c-0.2,0.3-0.4,0.5-0.6,0.7
				c-0.2,0.1-0.5,0.2-0.7,0.3C158.1,26,157.8,26,157.6,26L157.6,26z M161.8,26v-7.2h0.6V26L161.8,26z M157.6,18.9v0.5
				c-0.2,0-0.4-0.1-0.5-0.1h-1v2.8h1.2c0.2,0,0.4,0,0.5,0v0.5H156v2.9h1.2c0.2,0,0.3,0,0.5,0V26c-0.2,0-0.4,0-0.5,0h-1.7v-7.1h1.7
				C157.2,18.9,157.4,18.9,157.6,18.9L157.6,18.9z M138.6,26v-0.5c0.2,0,0.3,0,0.4,0c0.3-0.1,0.6-0.2,0.9-0.4
				c0.8-0.6,1.3-1.6,1.3-2.6c0-0.5-0.1-1-0.4-1.5c-0.2-0.4-0.5-0.8-0.9-1.1c-0.3-0.2-0.6-0.3-0.9-0.4c-0.1,0-0.3,0-0.4,0v-0.6
				c0.2,0,0.5,0.1,0.7,0.1c0.4,0.1,0.7,0.3,1,0.5c0.4,0.3,0.8,0.8,1,1.2c0.2,0.5,0.4,1.1,0.4,1.6c0,0.6-0.1,1.1-0.4,1.6
				c-0.2,0.5-0.6,0.9-1,1.2c-0.3,0.2-0.7,0.4-1,0.5C139.2,25.9,138.9,26,138.6,26L138.6,26z M143.9,26v-7.2h3.8v0.5h-3.3v2.8h3.2
				v0.5h-3.2v2.9h3.4V26L143.9,26z M153.2,19.9c-0.3-0.2-0.6-0.3-0.9-0.5c-0.3-0.1-0.5-0.1-0.8-0.2c-0.4,0-0.8,0.1-1,0.4
				c-0.3,0.2-0.4,0.6-0.4,0.9c0,0.3,0.1,0.5,0.2,0.7c0.3,0.3,0.7,0.5,1.2,0.7c0,0,0.1,0,0.2,0c0.5,0.2,0.9,0.4,1.3,0.8
				c0.2,0.2,0.3,0.3,0.4,0.5c0.1,0.2,0.1,0.5,0.2,0.7c0,0.5-0.2,1-0.6,1.4c-0.4,0.4-1,0.6-1.6,0.5c-0.3,0-0.6,0-0.9-0.2
				c-0.3-0.1-0.6-0.3-0.9-0.5v-0.7c0.3,0.2,0.6,0.4,0.9,0.6c0.3,0.1,0.6,0.2,0.9,0.2c0.4,0,0.8-0.1,1.1-0.4c0.3-0.3,0.4-0.7,0.4-1
				c0-0.3-0.1-0.6-0.3-0.8c-0.3-0.3-0.8-0.6-1.2-0.7c-0.5-0.2-1-0.5-1.4-0.9c-0.3-0.3-0.4-0.7-0.4-1.1c0-0.5,0.2-1,0.6-1.4
				c0.4-0.4,0.9-0.5,1.5-0.5c0.3,0,0.6,0,0.9,0.1c0.3,0.1,0.5,0.2,0.8,0.4L153.2,19.9L153.2,19.9z M138.6,18.9v0.5
				c-0.3,0-0.5,0-0.8,0h-1.7v6.1h1.7c0.3,0,0.6,0,0.8,0V26c-0.2,0-0.4,0-0.7,0h-2.4v-7.1h2.4C138.2,18.9,138.4,18.9,138.6,18.9
				L138.6,18.9z M122.1,23.6v-0.5h1.4l-1.4-3.3l0,0v-1h0.1l3.1,7.2h-0.6l-1-2.5L122.1,23.6z M126.7,26v-7.2h0.6l5.2,6.2v-6.2h0.6V26
				h-0.5l-5.2-6.3V26L126.7,26z M122.1,18.9v1l-1.4,3.3h1.4v0.5h-1.6l-1,2.5H119L122.1,18.9L122.1,18.9z M52.8,23.6v-0.5h1.4
				l-1.4-3.3l0,0v-1H53l3.1,7.2h-0.6l-1-2.5L52.8,23.6z M53.3,17.8V17H54v0.9L53.3,17.8z M63.3,25.5c-0.4,0.2-0.8,0.3-1.2,0.5
				c-0.4,0.1-0.8,0.2-1.2,0.2c-0.4,0-0.8,0-1.2-0.2c-0.4-0.1-0.7-0.3-1-0.5c-0.5-0.3-1-0.8-1.2-1.4C57.1,23.6,57,23,57,22.4
				c0-0.5,0.1-1,0.3-1.4c0.2-0.4,0.5-0.8,0.8-1.2c0.4-0.4,0.8-0.6,1.2-0.8c0.5-0.2,1-0.2,1.5-0.2c0.4,0,0.8,0,1.2,0.2
				c0.4,0.1,0.9,0.3,1.3,0.5v0.6c-0.4-0.3-0.9-0.4-1.4-0.6c-0.4-0.1-0.8-0.2-1.2-0.2c-0.3,0-0.6,0-0.9,0.2c-0.3,0.1-0.6,0.2-0.9,0.4
				c-0.4,0.3-0.8,0.7-1,1.1c-0.4,0.9-0.5,1.9-0.1,2.8c0.1,0.4,0.4,0.7,0.7,1c0.3,0.3,0.6,0.5,1,0.7c0.4,0.2,0.8,0.2,1.3,0.2
				c0.4,0,0.8-0.1,1.2-0.2c0.5-0.2,0.9-0.3,1.4-0.5L63.3,25.5L63.3,25.5z M65.2,26v-7.1h0.6v3.3h4.7v-3.3h0.6V26h-0.6v-3.3h-4.7V26
				L65.2,26z M76.9,19.9c-0.3-0.2-0.6-0.3-0.9-0.5c-0.3-0.1-0.5-0.1-0.8-0.2c-0.4,0-0.8,0.1-1,0.4c-0.3,0.2-0.4,0.6-0.4,0.9
				c0,0.3,0.1,0.5,0.3,0.7c0.3,0.3,0.7,0.5,1.1,0.7c0,0,0.1,0,0.2,0c0.5,0.2,0.9,0.4,1.3,0.8c0.2,0.2,0.3,0.3,0.4,0.5
				c0.1,0.2,0.1,0.5,0.2,0.7c0,0.5-0.2,1-0.6,1.4c-0.4,0.4-1,0.6-1.5,0.5c-0.3,0-0.6,0-0.9-0.2c-0.3-0.1-0.6-0.3-0.9-0.5v-0.7
				c0.3,0.2,0.6,0.4,0.9,0.6c0.3,0.1,0.6,0.2,0.9,0.2c0.4,0,0.8-0.1,1.1-0.4c0.3-0.3,0.4-0.7,0.4-1c0-0.3-0.1-0.6-0.3-0.8
				c-0.3-0.3-0.8-0.6-1.2-0.7c-0.5-0.2-1-0.5-1.4-0.9c-0.3-0.3-0.4-0.7-0.4-1.1c0-0.5,0.2-1,0.6-1.4c0.4-0.4,0.9-0.5,1.5-0.5
				c0.3,0,0.6,0,0.9,0.1c0.3,0.1,0.5,0.2,0.8,0.4L76.9,19.9L76.9,19.9z M79.1,26v-7.1h0.6V26L79.1,26z M85.5,19.9
				c-0.3-0.2-0.6-0.3-0.9-0.5c-0.3-0.1-0.5-0.1-0.8-0.2c-0.4,0-0.8,0.1-1,0.4c-0.3,0.2-0.4,0.6-0.4,0.9c0,0.3,0.1,0.5,0.2,0.7
				c0.3,0.3,0.7,0.5,1.2,0.7c0,0,0.1,0,0.2,0c0.5,0.2,0.9,0.4,1.3,0.8c0.1,0.2,0.3,0.3,0.4,0.5c0.1,0.2,0.1,0.5,0.1,0.7
				c0,0.5-0.2,1-0.6,1.4c-0.4,0.4-1,0.6-1.5,0.5c-0.3,0-0.6,0-0.9-0.2c-0.3-0.1-0.6-0.3-0.9-0.5v-0.7c0.3,0.2,0.6,0.4,1,0.6
				c0.3,0.1,0.6,0.2,0.9,0.2c0.4,0,0.8-0.1,1.1-0.4c0.3-0.3,0.5-0.7,0.4-1c0-0.3-0.1-0.6-0.3-0.8c-0.4-0.3-0.8-0.6-1.2-0.7
				c-0.5-0.2-1-0.5-1.4-0.9c-0.3-0.3-0.4-0.7-0.4-1.1c0-0.5,0.2-1,0.6-1.4c0.4-0.4,0.9-0.5,1.5-0.5c0.3,0,0.6,0,0.8,0.1
				c0.3,0.1,0.6,0.2,0.8,0.4L85.5,19.9L85.5,19.9z M93.7,25.5c-0.4,0.2-0.8,0.4-1.2,0.5c-0.4,0.1-0.8,0.2-1.2,0.2
				c-0.4,0-0.8,0-1.2-0.2c-0.4-0.1-0.7-0.3-1-0.5c-0.5-0.3-0.9-0.8-1.2-1.4c-0.3-0.5-0.5-1.1-0.5-1.7c0-0.5,0.1-1,0.3-1.4
				c0.2-0.4,0.5-0.8,0.8-1.2c0.4-0.4,0.8-0.6,1.2-0.8c0.5-0.2,1-0.2,1.5-0.2c0.4,0,0.8,0,1.2,0.2c0.4,0.1,0.9,0.3,1.3,0.5v0.6
				c-0.4-0.3-0.9-0.4-1.4-0.6c-0.4-0.1-0.8-0.2-1.2-0.2c-0.3,0-0.6,0-0.9,0.2c-0.3,0.1-0.6,0.2-0.9,0.4c-0.4,0.3-0.8,0.7-1,1.1
				c-0.5,0.9-0.5,1.9-0.2,2.8c0.2,0.4,0.4,0.7,0.7,1c0.3,0.3,0.6,0.5,1,0.7c0.4,0.2,0.8,0.2,1.2,0.2c0.4,0,0.8-0.1,1.2-0.2
				c0.5-0.2,0.9-0.3,1.4-0.5L93.7,25.5L93.7,25.5z M95.6,26v-7.1h0.5v3.3h4.7v-3.3h0.6V26h-0.6v-3.3h-4.7V26L95.6,26z M103.9,26
				v-7.1h3.8v0.5h-3.3v2.8h3.2v0.5h-3.2v2.9h3.3V26L103.9,26z M114.3,26v-7.1h0.6v6.6h3.3V26L114.3,26L114.3,26z M52.8,18.8v1
				l-1.4,3.3h1.4v0.5h-1.6l-1,2.5h-0.6L52.8,18.8L52.8,18.8z M40.6,22.7v-0.6c0.1,0,0.1,0,0.2,0c0.2,0,0.4-0.1,0.5-0.2
				c0.2-0.1,0.5-0.2,0.6-0.5c0.2-0.2,0.2-0.5,0.2-0.7c0-0.4-0.2-0.7-0.5-1c-0.3-0.2-0.6-0.3-1-0.4v-0.5c0.5,0,1,0.2,1.4,0.5
				c0.4,0.3,0.7,0.8,0.6,1.4c0,0.4-0.1,0.8-0.4,1.1c-0.3,0.3-0.6,0.5-1,0.7c0.1,0.1,0.2,0.1,0.4,0.2c0.1,0.1,0.2,0.2,0.3,0.4l1.9,3
				h-0.7L42,24.4c-0.2-0.3-0.4-0.6-0.5-0.9c-0.1-0.2-0.2-0.3-0.4-0.5C40.9,22.9,40.7,22.8,40.6,22.7L40.6,22.7L40.6,22.7z
				 M48.5,19.9c-0.3-0.2-0.6-0.3-0.9-0.5c-0.3-0.1-0.5-0.1-0.8-0.2c-0.4,0-0.8,0.1-1,0.4c-0.3,0.2-0.4,0.6-0.4,0.9
				c0,0.3,0.1,0.5,0.3,0.7c0.3,0.3,0.7,0.5,1.1,0.7c0,0,0.1,0,0.2,0c0.5,0.2,0.9,0.4,1.3,0.8c0.2,0.2,0.3,0.3,0.4,0.5
				c0.1,0.2,0.1,0.5,0.1,0.7c0,0.5-0.2,1-0.6,1.4c-0.4,0.4-1,0.6-1.5,0.5c-0.3,0-0.6,0-0.9-0.2c-0.3-0.1-0.6-0.3-0.9-0.5v-0.7
				c0.3,0.2,0.6,0.4,0.9,0.6c0.3,0.1,0.6,0.2,0.9,0.2c0.4,0,0.8-0.1,1.1-0.4c0.3-0.3,0.4-0.7,0.4-1c0-0.3-0.1-0.6-0.3-0.8
				c-0.3-0.3-0.8-0.6-1.2-0.7c-0.5-0.2-1-0.5-1.4-0.9c-0.2-0.3-0.4-0.7-0.4-1.1c0-0.5,0.2-1,0.5-1.4c0.4-0.3,0.9-0.5,1.5-0.5
				c0.3,0,0.6,0,0.9,0.1c0.3,0.1,0.5,0.2,0.8,0.4L48.5,19.9L48.5,19.9z M51.7,17.8V17h0.7v0.9L51.7,17.8z M40.6,18.9v0.5h-1.4v2.8
				h0.5c0.5,0,0.8,0,1,0v0.6c-0.3-0.1-0.6-0.1-0.9-0.1h-0.6V26h-0.5v-7.1H40.6L40.6,18.9z M27.4,26v-0.5c0.2,0,0.3,0,0.4,0
				c0.3-0.1,0.6-0.2,0.9-0.4c0.8-0.6,1.3-1.6,1.3-2.6c0-0.5-0.1-1-0.4-1.5c-0.2-0.4-0.5-0.8-0.9-1.1c-0.3-0.2-0.6-0.3-0.9-0.4
				c-0.1,0-0.3,0-0.4,0v-0.6c0.2,0,0.5,0.1,0.7,0.1c0.4,0.1,0.7,0.3,1,0.5c0.4,0.3,0.8,0.8,1,1.2c0.2,0.5,0.4,1.1,0.4,1.6
				c0,0.6-0.1,1.1-0.4,1.6c-0.2,0.5-0.6,0.9-1,1.2c-0.3,0.2-0.7,0.4-1,0.5C27.9,25.9,27.6,26,27.4,26L27.4,26z M32.7,26v-7.1h3.8
				v0.5h-3.3v2.8h3.2v0.5h-3.2v2.9h3.4V26H32.7z M6.4,26v-7.1H7l5.2,6.2v-6.2h0.5V26h-0.5L7,19.7V26H6.4z M27.4,18.9v0.5
				c-0.3,0-0.5,0-0.8,0h-1.7v6.1h1.7c0.3,0,0.5,0,0.8,0V26c-0.2,0-0.4,0-0.7,0h-2.4v-7.1h2.4C26.9,18.9,27.2,18.9,27.4,18.9
				L27.4,18.9z M15.3,26v-7.1h0.6V26H15.3z M18.4,26v-7.1h3.8v0.5h-3.3v2.8h3.2v0.5h-3.2v2.9h3.4V26H18.4z"/>
			<path id="Pfad_3" class="st1" d="M209.5,7.9V0.6h1v3.3l3.1-3.3h1.3L211.8,4l3.8,3.9h-1.5l-3.5-3.7v3.7L209.5,7.9z M183.9,8.1v-1
				c0.4,0,0.7-0.1,1.1-0.2c0.3-0.1,0.7-0.4,0.9-0.6c0.3-0.2,0.5-0.6,0.6-0.9c0.2-0.3,0.2-0.7,0.2-1.1c0-0.4-0.1-0.7-0.2-1
				c-0.1-0.4-0.4-0.7-0.7-0.9c-0.2-0.3-0.6-0.5-0.9-0.6c-0.3-0.2-0.7-0.2-1.1-0.2v-1c0.5,0,1.1,0.1,1.6,0.3c0.5,0.2,0.9,0.5,1.2,0.8
				c0.4,0.4,0.6,0.8,0.9,1.2c0.2,0.5,0.3,1,0.3,1.5c0,0.5-0.1,1-0.3,1.4c-0.2,0.5-0.5,0.9-0.9,1.2c-0.4,0.4-0.8,0.7-1.3,0.9
				C184.9,8,184.4,8.1,183.9,8.1L183.9,8.1z M203.6,7.9V0.6h4.4v0.9h-3.4v2.3h3.3v1h-3.3V7h3.5v0.9L203.6,7.9z M195.7,7.9V0.6h1v3.1
				h4.3V0.6h1v7.4h-1V4.7h-4.3v3.2L195.7,7.9z M191,7.9V1.5h-2.7V0.6h6.5v0.9h-2.7v6.4H191z M183.9,0.4v1l0,0c-0.4,0-0.7,0.1-1,0.2
				c-0.3,0.1-0.7,0.4-0.9,0.6c-0.3,0.2-0.5,0.6-0.6,0.9c-0.2,0.3-0.2,0.7-0.2,1.1c0,0.4,0.1,0.7,0.2,1.1c0.3,0.7,0.8,1.2,1.5,1.5
				c0.3,0.2,0.7,0.2,1.1,0.2l0,0v1l0,0c-0.5,0-1-0.1-1.5-0.3c-0.5-0.2-0.9-0.5-1.2-0.8c-0.4-0.3-0.7-0.8-0.9-1.2
				c-0.2-0.5-0.3-1-0.3-1.5c0-0.5,0.1-1,0.3-1.4c0.2-0.5,0.5-0.9,0.9-1.2c0.4-0.4,0.8-0.6,1.2-0.8C182.9,0.5,183.4,0.4,183.9,0.4
				L183.9,0.4z M168.1,7.9V7h0.2c0.4,0,0.8-0.1,1.1-0.3c0.2-0.2,0.4-0.5,0.4-0.9c0-0.3-0.1-0.7-0.4-0.9c-0.4-0.2-0.8-0.3-1.2-0.3
				h-0.1v-1c0.3,0,0.5-0.1,0.7-0.2c0.3-0.2,0.4-0.6,0.4-0.9c0-0.3-0.1-0.6-0.3-0.8c-0.2-0.2-0.6-0.3-0.9-0.2V0.7
				c0.6,0,1.2,0.1,1.6,0.5c0.4,0.4,0.7,0.9,0.6,1.4c0,0.3-0.1,0.7-0.3,0.9c-0.2,0.3-0.5,0.5-0.8,0.6c0.5,0.1,0.9,0.3,1.2,0.7
				c0.3,0.3,0.5,0.8,0.5,1.2c0,0.6-0.2,1.1-0.7,1.5c-0.5,0.4-1.2,0.6-1.8,0.5h-0.4V7.9z M177.7,7.9V0.6h1v7.4H177.7z M172.2,7.9V0.6
				h1V7h3.5v0.9L172.2,7.9z M168.1,0.6v0.9H167v2.2h0.7c0.2,0,0.3,0,0.5,0v1H167V7h1.2v0.9h-2.2V0.5L168.1,0.6
				C168.1,0.6,168.1,0.6,168.1,0.6L168.1,0.6z M159.2,7.9V7h0.2c0.4,0,0.8-0.1,1.1-0.3c0.2-0.2,0.4-0.5,0.4-0.9
				c0-0.3-0.1-0.7-0.4-0.9c-0.4-0.2-0.8-0.3-1.2-0.3h-0.1v-1c0.3,0,0.5-0.1,0.7-0.2c0.3-0.2,0.4-0.6,0.4-0.9c0-0.3-0.1-0.6-0.3-0.8
				c-0.2-0.2-0.6-0.3-0.9-0.2V0.7c0.6,0,1.2,0.1,1.7,0.5c0.4,0.4,0.6,0.9,0.6,1.4c0,0.3-0.1,0.7-0.3,0.9c-0.2,0.3-0.5,0.5-0.8,0.6
				c0.5,0.1,0.9,0.3,1.2,0.7c0.3,0.4,0.4,0.8,0.4,1.2c0,0.6-0.2,1.1-0.7,1.5c-0.5,0.4-1.2,0.6-1.8,0.5h-0.3L159.2,7.9z M163.3,7.9
				V0.6h1v7.4H163.3z M159.2,0.6v0.9H158v2.2h0.7c0.2,0,0.3,0,0.5,0v1H158V7h1.2v0.9h-2.2V0.5L159.2,0.6
				C159.1,0.6,159.1,0.6,159.2,0.6L159.2,0.6z M132.1,7.9V7h0.2c0.4,0,0.8-0.1,1.1-0.3c0.2-0.2,0.4-0.5,0.4-0.9
				c0-0.3-0.1-0.7-0.4-0.9c-0.4-0.2-0.8-0.3-1.2-0.3h-0.1v-1c0.3,0,0.5-0.1,0.7-0.2c0.3-0.2,0.4-0.6,0.4-0.9c0-0.3-0.1-0.6-0.3-0.8
				c-0.2-0.2-0.6-0.3-0.9-0.2V0.7c0.6,0,1.2,0.1,1.6,0.5c0.4,0.4,0.7,0.9,0.6,1.4c0,0.3-0.1,0.7-0.3,0.9c-0.2,0.3-0.5,0.5-0.8,0.6
				c0.5,0.1,0.9,0.3,1.2,0.7c0.3,0.3,0.5,0.8,0.5,1.2c0,0.6-0.2,1.1-0.7,1.5c-0.5,0.4-1.2,0.6-1.8,0.5h-0.4V7.9z M146.6,7.9l4.9-6.4
				h-4.5V0.6h6.3v0.1L148.5,7h4.8v0.9H146.6z M144.7,7.9V0.6h1v7.4H144.7z M136.2,7.9V0.6h0.9l4.9,5.8V0.6h1v7.4h-0.9l-4.9-5.7V8
				L136.2,7.9L136.2,7.9z M132.1,0.6v0.9H131v2.2h0.7c0.2,0,0.3,0,0.5,0v1H131V7h1.2v0.9h-2.2V0.5L132.1,0.6
				C132.1,0.6,132.1,0.6,132.1,0.6L132.1,0.6z M59.5,7.9v-1C60,6.8,60.6,6.6,61,6.2c1-1.1,1-2.8,0-3.9c-0.4-0.4-0.9-0.6-1.5-0.7v-1
				c0.3,0,0.5,0,0.7,0.1C60.6,0.8,61,1,61.3,1.2c0.5,0.3,0.9,0.8,1.2,1.3C63,3.6,63,4.9,62.5,6c-0.3,0.5-0.7,1-1.2,1.3
				c-0.3,0.2-0.7,0.4-1.1,0.5C60,7.9,59.7,7.9,59.5,7.9L59.5,7.9z M127.3,7.9V0.6h1v7.4H127.3z M121.3,7.9V0.6h4.4v0.9h-3.4v2.3h3.3
				v1h-3.3V7h3.5v0.9L121.3,7.9z M115.9,7.9V0.6h1V7h3.5v0.9L115.9,7.9z M104.4,7.9V0.6h0.9l2.6,3.1l2.6-3.1h0.9v7.4h-1V2.2l-2.6,3
				l-2.6-3v5.7L104.4,7.9z M98.9,7.9V0.6h1V7h3.5v0.9L98.9,7.9z M93,7.9V0.6h4.4v0.9h-3.4v2.3h3.3v1h-3.3V7h3.5v0.9L93,7.9z
				 M85.1,7.9V0.6h1v3.1h4.3V0.6h1v7.4h-1V4.7h-4.3v3.2L85.1,7.9z M79.6,7.9V0.6h1V7h3.5v0.9L79.6,7.9z M77,7.9V0.6h1v7.4H77z
				 M68.6,8l-2.8-7.5h1.1l1.8,5l2-5h0.7l2,5l1.9-5h1L73.5,8h-0.2L71,2.3L68.8,8H68.6z M59.5,0.6v1c-0.2,0-0.4,0-0.7,0h-1.7v5.4h1.7
				c0.2,0,0.4,0,0.7,0v1c-0.2,0-0.4,0-0.7,0h-2.7V0.6h2.7C59,0.5,59.3,0.6,59.5,0.6z M43.6,4.9V3.7c0.3,0,0.6-0.1,0.8-0.3
				c0.2-0.2,0.4-0.5,0.4-0.9c0-0.3-0.1-0.7-0.4-0.9c-0.2-0.2-0.6-0.3-0.9-0.2V0.6c0.6-0.1,1.2,0.1,1.7,0.5C45.9,1.9,46,3,45.5,3.8
				c-0.3,0.3-0.6,0.6-1,0.7c0.1,0.1,0.2,0.1,0.4,0.2C44.9,4.8,45,5,45.2,5.2L47,7.9h-1.2L44.6,6C44.3,5.6,44,5.2,43.6,4.9L43.6,4.9z
				 M50.2,7.9V0.6h4.4v0.9h-3.4v2.3h3.3v1h-3.3V7h3.5v0.9L50.2,7.9z M47.6,7.9V0.6h1v7.4H47.6z M43.6,0.6v0.9h-1.2v2.3h1.2v1.2l0,0
				c-0.3-0.2-0.6-0.2-0.9-0.2h-0.4V8h-1V0.6L43.6,0.6L43.6,0.6L43.6,0.6z M17.5,8.1v-1c0.4,0,0.7-0.1,1.1-0.2
				c0.3-0.1,0.7-0.4,0.9-0.6C19.8,6,20,5.7,20.1,5.3c0.2-0.3,0.2-0.7,0.2-1.1c0-0.4-0.1-0.7-0.2-1c-0.1-0.4-0.4-0.7-0.7-0.9
				C19.3,2,19,1.8,18.6,1.6c-0.3-0.2-0.7-0.2-1.1-0.2v-1c0.5,0,1,0.1,1.5,0.3c0.5,0.2,0.9,0.5,1.3,0.8c0.4,0.4,0.6,0.8,0.9,1.2
				c0.2,0.5,0.3,1,0.3,1.5c0,0.5-0.1,1-0.3,1.4c-0.2,0.5-0.5,0.9-0.9,1.2c-0.4,0.4-0.8,0.7-1.3,0.9C18.6,8,18,8.1,17.5,8.1L17.5,8.1
				z M35.9,7.9V0.6h4.2v0.9H37v2.2h3v0.9h-3v3.3L35.9,7.9z M31.3,7.9V1.5h-2.7V0.6h6.5v0.9h-2.7v6.4H31.3z M24.7,7.9V1.5H22V0.6h6.5
				v0.9h-2.7v6.4H24.7z M17.5,0.4v1l0,0c-0.4,0-0.7,0.1-1,0.2c-0.3,0.1-0.7,0.4-0.9,0.6c-0.3,0.2-0.5,0.6-0.6,0.9
				c-0.2,0.3-0.2,0.7-0.2,1.1c0,0.4,0.1,0.7,0.2,1.1c0.3,0.7,0.8,1.2,1.5,1.5c0.3,0.2,0.7,0.2,1.1,0.2l0,0v1l0,0
				c-0.5,0-1-0.1-1.5-0.3c-0.5-0.2-0.9-0.5-1.2-0.8c-0.4-0.3-0.7-0.8-0.9-1.2c-0.2-0.5-0.3-1-0.3-1.5c0-0.5,0.1-1,0.3-1.4
				c0.2-0.5,0.5-0.9,0.9-1.2c0.4-0.4,0.8-0.6,1.2-0.8C16.5,0.5,17,0.4,17.5,0.4L17.5,0.4z M12.6,4.3v3.1c-0.4,0.2-0.9,0.4-1.4,0.5
				C10.8,8,10.4,8.1,10,8.1c-0.4,0-0.8,0-1.2-0.2C8.4,7.8,8,7.7,7.7,7.5c-0.5-0.4-1-0.8-1.3-1.4C6.1,5.5,5.9,4.9,5.9,4.2
				c0-0.5,0.1-1,0.3-1.4c0.2-0.5,0.5-0.9,0.9-1.2c0.4-0.4,0.8-0.7,1.3-0.9C8.9,0.5,9.5,0.4,10,0.4c0.4,0,0.8,0,1.2,0.2
				c0.4,0.1,0.9,0.2,1.2,0.5v1.2c-0.4-0.2-0.9-0.4-1.3-0.5c-0.4-0.1-0.8-0.2-1.2-0.2c-0.8,0-1.6,0.3-2.1,0.8c-1.1,1.1-1.1,2.9-0.1,4
				c0,0,0,0,0.1,0.1C8.4,6.9,9.2,7.2,10,7.2c0.2,0,0.5,0,0.7-0.1C11,7,11.2,6.9,11.5,6.8V5.4h-1.4v-1L12.6,4.3L12.6,4.3z"/>
			<rect id="Rechteck_1" x="0.4" y="13.3" class="st2" width="218.4" height="0.7"/>
		</g>
	</g>
</g>
</svg>
